<?xml version="1.0" encoding="UTF-8" standalone="no"?>
<!-- Created with Inkscape (http://www.inkscape.org/) -->

<svg
   width="89.747185mm"
   height="89.747185mm"
   viewBox="0 0 89.747185 89.747185"
   version="1.1"
   id="svg5"
   sodipodi:docname="voltorbs.svg"
   inkscape:version="1.1 (c68e22c387, 2021-05-23)"
   xmlns:inkscape="http://www.inkscape.org/namespaces/inkscape"
   xmlns:sodipodi="http://sodipodi.sourceforge.net/DTD/sodipodi-0.dtd"
   xmlns="http://www.w3.org/2000/svg"
   xmlns:svg="http://www.w3.org/2000/svg">
  <sodipodi:namedview
     id="namedview7"
     pagecolor="#414141"
     bordercolor="#666666"
     borderopacity="1.0"
     inkscape:pageshadow="2"
     inkscape:pageopacity="0"
     inkscape:pagecheckerboard="0"
     inkscape:document-units="mm"
     showgrid="false"
     inkscape:snap-object-midpoints="true"
     inkscape:snap-smooth-nodes="true"
     inkscape:zoom="0.94237256"
     inkscape:cx="228.14756"
     inkscape:cy="105.58457"
     inkscape:window-width="1920"
     inkscape:window-height="1017"
     inkscape:window-x="1912"
     inkscape:window-y="-8"
     inkscape:window-maximized="1"
     inkscape:current-layer="layer1"
     fit-margin-top="0"
     fit-margin-left="0"
     fit-margin-right="0"
     fit-margin-bottom="0" />
  <defs
     id="defs2" />
  <g
     inkscape:label="Layer 1"
     inkscape:groupmode="layer"
     id="layer1"
     transform="translate(-8.5930964,-6.9601208)">
    <g
       id="g5670"
       transform="translate(2.2461039,-10.107468)">
      <circle
         style="fill:#ffffff;stroke:none;stroke-width:1.0942;stroke-linecap:round;stroke-linejoin:bevel;stroke-miterlimit:4;stroke-dasharray:none;paint-order:markers fill stroke"
         id="circle5570"
         cx="51.220585"
         cy="61.941181"
         r="44.873592" />
      <circle
         style="fill:#000000;stroke:#000000;stroke-width:1.05312;stroke-linecap:round;stroke-linejoin:bevel;stroke-miterlimit:4;stroke-dasharray:none;paint-order:markers fill stroke"
         id="path5488"
         cx="51.220585"
         cy="61.941181"
         r="43.189014" />
      <g
         id="g5446"
         transform="translate(4.7647039,5.1617653)">
        <g
           id="g3414"
           transform="translate(-22.632353,-16.676471)">
          <circle
             style="fill:#ffffff;stroke-width:5.18901;stroke-linecap:round;stroke-linejoin:bevel;paint-order:markers fill stroke"
             id="path846"
             cx="69.088234"
             cy="73.455887"
             r="42.882351" />
          <path
             id="circle1032"
             style="fill:#ff0000;stroke-width:5.18901;stroke-linecap:round;stroke-linejoin:bevel;paint-order:markers fill stroke"
             d="m 111.97908,73.455887 c -44.048914,25.431649 -85.764702,0 -85.764702,0 0,-23.683268 19.199083,-42.882351 42.882351,-42.882351 23.683267,3e-6 42.882351,18.897259 42.882351,42.882351 z"
             sodipodi:nodetypes="ccsc" />
          <g
             id="g3383"
             transform="translate(-0.561591)">
            <g
               id="g3365">
              <path
                 id="rect2177"
                 style="fill:#ffffff;stroke-width:5.39144;stroke-linecap:round;stroke-linejoin:bevel;paint-order:markers fill stroke"
                 d="m 42.723024,55.574267 c 0.983135,-1.157288 20.434208,9.300753 21.733303,10.979129 0.750725,0.969906 0.593921,5.435941 -0.244588,6.001307 -0.852945,0.575099 -21.075332,0.307337 -21.79724,-0.625337 -0.488125,-0.630638 -0.458968,-15.451651 0.308525,-16.355099 z"
                 sodipodi:nodetypes="sssss" />
              <path
                 style="fill:none;stroke:#000000;stroke-width:0.865;stroke-linecap:round;stroke-linejoin:miter;stroke-miterlimit:4;stroke-dasharray:none;stroke-opacity:1"
                 d="m 63.241863,52.923821 c 1.808999,2.207695 4.507742,16.246173 1.214462,13.629573 C 59.864775,62.905282 43.167307,54.643496 41.342349,54.257447"
                 id="path2886"
                 sodipodi:nodetypes="csc" />
              <ellipse
                 style="fill:#000000;stroke-width:0.865;stroke-linecap:round;stroke-linejoin:bevel;stroke-miterlimit:4;stroke-dasharray:none;paint-order:markers fill stroke"
                 id="path3200"
                 cx="56.573742"
                 cy="64.901489"
                 rx="0.49133521"
                 ry="3.4393466" />
            </g>
            <g
               id="g3373"
               transform="matrix(-1,0,0,1,139.31664,0)">
              <path
                 id="path3367"
                 style="fill:#ffffff;stroke-width:5.39144;stroke-linecap:round;stroke-linejoin:bevel;paint-order:markers fill stroke"
                 d="m 42.723024,55.574267 c 0.983135,-1.157288 20.434208,9.300753 21.733303,10.979129 0.750725,0.969906 0.593921,5.435941 -0.244588,6.001307 -0.852945,0.575099 -21.075332,0.307337 -21.79724,-0.625337 -0.488125,-0.630638 -0.458968,-15.451651 0.308525,-16.355099 z"
                 sodipodi:nodetypes="sssss" />
              <path
                 style="fill:none;stroke:#000000;stroke-width:0.865;stroke-linecap:round;stroke-linejoin:miter;stroke-miterlimit:4;stroke-dasharray:none;stroke-opacity:1"
                 d="m 63.241863,52.923821 c 1.808999,2.207695 4.507742,16.246173 1.214462,13.629573 C 59.864775,62.905282 43.167307,54.643496 41.342349,54.257447"
                 id="path3369"
                 sodipodi:nodetypes="csc" />
              <ellipse
                 style="fill:#000000;stroke-width:0.865;stroke-linecap:round;stroke-linejoin:bevel;stroke-miterlimit:4;stroke-dasharray:none;paint-order:markers fill stroke"
                 id="ellipse3371"
                 cx="56.573742"
                 cy="64.901489"
                 rx="0.49133521"
                 ry="3.4393466" />
            </g>
          </g>
        </g>
      </g>
    </g>
    <g
       id="g5688"
       transform="translate(26.254385,-53.449783)">
      <circle
         style="fill:#ffffff;stroke:none;stroke-width:1.0942;stroke-linecap:round;stroke-linejoin:bevel;stroke-miterlimit:4;stroke-dasharray:none;paint-order:markers fill stroke"
         id="circle5651"
         cx="150.90822"
         cy="56.779415"
         r="44.873592" />
      <circle
         style="fill:#000000;stroke:#000000;stroke-width:1.05312;stroke-linecap:round;stroke-linejoin:bevel;stroke-miterlimit:4;stroke-dasharray:none;paint-order:markers fill stroke"
         id="circle5653"
         cx="150.90822"
         cy="56.779415"
         r="43.189014" />
      <g
         id="g5621">
        <circle
           style="fill:#ffffff;stroke-width:5.18901;stroke-linecap:round;stroke-linejoin:bevel;paint-order:markers fill stroke"
           id="circle3416"
           cx="150.90822"
           cy="56.779415"
           r="42.882351" />
        <path
           id="path3418"
           style="fill:#ff0000;stroke-width:5.18901;stroke-linecap:round;stroke-linejoin:bevel;paint-order:markers fill stroke"
           d="m 193.79056,56.779416 c -44.04892,25.431649 -85.7647,0 -85.7647,0 0,-23.683268 19.19908,-42.882351 42.88235,-42.882351 23.68326,3e-6 42.88235,18.897259 42.88235,42.882351 z"
           sodipodi:nodetypes="ccsc" />
        <g
           id="g5416"
           transform="matrix(-0.95422532,-0.29908868,-0.29908868,0.95422532,311.69616,42.878192)">
          <g
             id="g5432"
             transform="translate(0.19101926,0.05987234)">
            <g
               id="g5005"
               transform="matrix(-0.77858285,-0.62754182,-0.62754182,0.77858285,303.08571,105.6913)">
              <g
                 id="g5086"
                 transform="rotate(-25.576981,134.41474,45.596163)">
                <path
                   id="path3420"
                   style="fill:#ffffff;stroke-width:5.39144;stroke-linecap:round;stroke-linejoin:bevel;paint-order:markers fill stroke"
                   d="m 123.97291,38.897796 c 0.98314,-1.157288 20.43421,9.300753 21.7333,10.979129 0.75073,0.969906 0.59392,5.435941 -0.24458,6.001307 -0.85295,0.575099 -21.07534,0.307337 -21.79724,-0.625337 -0.48813,-0.630638 -0.45897,-15.451651 0.30852,-16.355099 z"
                   sodipodi:nodetypes="sssss" />
                <path
                   style="fill:none;stroke:#000000;stroke-width:0.865;stroke-linecap:round;stroke-linejoin:miter;stroke-miterlimit:4;stroke-dasharray:none;stroke-opacity:1"
                   d="m 145.4844,41.210587 c 0.75126,0.905937 2.98101,10.525314 0.22181,8.666338 -4.86354,-3.276742 -21.28902,-11.909898 -23.11397,-12.295947"
                   id="path3422"
                   sodipodi:nodetypes="csc" />
                <path
                   sodipodi:type="spiral"
                   style="fill:none;fill-rule:evenodd;stroke:#000000;stroke-width:4.0252;stroke-linecap:round;stroke-miterlimit:4;stroke-dasharray:none"
                   id="path4074"
                   sodipodi:cx="491.84369"
                   sodipodi:cy="183.57919"
                   sodipodi:expansion="1"
                   sodipodi:revolution="2"
                   sodipodi:radius="19.63847"
                   sodipodi:argument="-11.666096"
                   sodipodi:t0="0"
                   d="m 491.84369,183.57919 c 0.91778,1.1572 -1.10708,1.80807 -1.92334,1.52541 -2.21201,-0.76599 -2.24143,-3.7159 -1.12747,-5.37208 1.99262,-2.96252 6.26562,-2.84347 8.82082,-0.72954 3.74986,3.10228 3.46789,8.85157 0.33161,12.26956 -4.18017,4.55564 -11.4506,4.10212 -15.71831,-0.0663 -5.37046,-5.24556 -4.74147,-14.05592 0.46426,-19.16705 6.30483,-6.19026 16.66478,-5.38381 22.61579,0.86219 7.01306,7.36069 6.02802,19.27586 -1.26012,26.06453"
                   transform="matrix(0.26458333,0,0,0.26458333,3.9866963,1.1911765)" />
              </g>
            </g>
            <g
               id="g5414"
               transform="rotate(-25.576981,134.89314,44.773908)">
              <path
                 id="path5408"
                 style="fill:#ffffff;stroke-width:5.39144;stroke-linecap:round;stroke-linejoin:bevel;paint-order:markers fill stroke"
                 d="m 123.97291,38.897796 c 0.98314,-1.157288 20.43421,9.300753 21.7333,10.979129 0.75073,0.969906 0.59392,5.435941 -0.24458,6.001307 -0.85295,0.575099 -21.07534,0.307337 -21.79724,-0.625337 -0.48813,-0.630638 -0.45897,-15.451651 0.30852,-16.355099 z"
                 sodipodi:nodetypes="sssss" />
              <path
                 style="fill:none;stroke:#000000;stroke-width:0.865;stroke-linecap:round;stroke-linejoin:miter;stroke-miterlimit:4;stroke-dasharray:none;stroke-opacity:1"
                 d="m 145.4844,41.210587 c 0.75126,0.905937 2.98101,10.525314 0.22181,8.666338 -4.86354,-3.276742 -21.28902,-11.909898 -23.11397,-12.295947"
                 id="path5410"
                 sodipodi:nodetypes="csc" />
              <path
                 sodipodi:type="spiral"
                 style="fill:none;fill-rule:evenodd;stroke:#000000;stroke-width:4.0252;stroke-linecap:round;stroke-miterlimit:4;stroke-dasharray:none"
                 id="path5412"
                 sodipodi:cx="491.84369"
                 sodipodi:cy="183.57919"
                 sodipodi:expansion="1"
                 sodipodi:revolution="2"
                 sodipodi:radius="19.63847"
                 sodipodi:argument="-11.666096"
                 sodipodi:t0="0"
                 d="m 491.84369,183.57919 c 0.91778,1.1572 -1.10708,1.80807 -1.92334,1.52541 -2.21201,-0.76599 -2.24143,-3.7159 -1.12747,-5.37208 1.99262,-2.96252 6.26562,-2.84347 8.82082,-0.72954 3.74986,3.10228 3.46789,8.85157 0.33161,12.26956 -4.18017,4.55564 -11.4506,4.10212 -15.71831,-0.0663 -5.37046,-5.24556 -4.74147,-14.05592 0.46426,-19.16705 6.30483,-6.19026 16.66478,-5.38381 22.61579,0.86219 7.01306,7.36069 6.02802,19.27586 -1.26012,26.06453"
                 transform="matrix(0.26458333,0,0,0.26458333,3.9866963,1.1911765)" />
            </g>
          </g>
        </g>
      </g>
    </g>
    <g
       id="g6911"
       transform="translate(42.675969,-58.398701)">
      <circle
         style="fill:#ffffff;stroke:none;stroke-width:1.0942;stroke-linecap:round;stroke-linejoin:bevel;stroke-miterlimit:4;stroke-dasharray:none;paint-order:markers fill stroke"
         id="circle5690"
         cx="134.20587"
         cy="159.61765"
         r="44.873592" />
      <circle
         style="fill:#000000;stroke:#000000;stroke-width:1.05312;stroke-linecap:round;stroke-linejoin:bevel;stroke-miterlimit:4;stroke-dasharray:none;paint-order:markers fill stroke"
         id="circle5692"
         cx="134.20587"
         cy="159.61765"
         r="43.189014" />
      <circle
         style="fill:#ffffff;stroke-width:5.18901;stroke-linecap:round;stroke-linejoin:bevel;paint-order:markers fill stroke"
         id="circle5694"
         cx="134.20587"
         cy="159.61766"
         r="42.882351" />
      <path
         id="path5696"
         style="fill:#ff0000;stroke-width:5.18901;stroke-linecap:round;stroke-linejoin:bevel;paint-order:markers fill stroke"
         d="m 177.09672,159.61766 c -44.04891,25.43164 -85.764697,0 -85.764697,0 0,-23.68327 19.199087,-42.88235 42.882347,-42.88235 23.68327,0 42.88235,18.89725 42.88235,42.88235 z"
         sodipodi:nodetypes="ccsc" />
      <g
         id="g6526"
         transform="translate(1.3825665)">
        <path
           style="fill:none;stroke:#000000;stroke-width:2.00822;stroke-linecap:round;stroke-linejoin:miter;stroke-miterlimit:4;stroke-dasharray:none;stroke-opacity:1"
           d="m 108.02493,150.65519 c 2.08827,-10.22156 10.77434,-21.69375 17.25345,-0.0589"
           id="path5881"
           sodipodi:nodetypes="cc" />
        <path
           style="fill:none;stroke:#000000;stroke-width:2.00822;stroke-linecap:round;stroke-linejoin:miter;stroke-miterlimit:4;stroke-dasharray:none;stroke-opacity:1"
           d="m 157.63868,150.65519 c -2.08827,-10.22156 -10.77434,-21.69375 -17.25345,-0.0589"
           id="path6385"
           sodipodi:nodetypes="cc" />
      </g>
    </g>
  </g>
</svg>
